<svg id="Layer_1" data-name="Layer 1" xmlns="http://www.w3.org/2000/svg" viewBox="0 0 46.4 45.6"><title>calendar</title><path d="M34.3,3.2A4.06,4.06,0,0,0,30.4,0a.86.86,0,0,0-.8.8.86.86,0,0,0,.8.8A2.43,2.43,0,0,1,32.8,4a2.43,2.43,0,0,1-2.4,2.4.86.86,0,0,0-.8.8.86.86,0,0,0,.8.8,4.06,4.06,0,0,0,3.9-3.2H44.8V12H1.6V4.8H15.2A.86.86,0,0,0,16,4a.86.86,0,0,0-.8-.8H13.7a2.42,2.42,0,0,1,4.7.8A2.43,2.43,0,0,1,16,6.4a.86.86,0,0,0-.8.8A.86.86,0,0,0,16,8a4,4,0,0,0,0-8,4.06,4.06,0,0,0-3.9,3.2H0V45.6H46.4V3.2H34.3ZM44.8,44H1.6V13.6H44.8Z"/><path d="M20.8,1.6A2.43,2.43,0,0,1,23.2,4a2.43,2.43,0,0,1-2.4,2.4.86.86,0,0,0-.8.8.86.86,0,0,0,.8.8,4,4,0,1,0,0-8,.86.86,0,0,0-.8.8.86.86,0,0,0,.8.8Z"/><path d="M25.6,1.6A2.43,2.43,0,0,1,28,4a2.43,2.43,0,0,1-2.4,2.4.86.86,0,0,0-.8.8.86.86,0,0,0,.8.8,4,4,0,1,0,0-8,.86.86,0,0,0-.8.8.86.86,0,0,0,.8.8Z"/><path d="M18.4,19.2a.8.8,0,1,1-.8-.8.86.86,0,0,1,.8.8Z"/><path d="M24,19.2a.8.8,0,1,1-.8-.8.86.86,0,0,1,.8.8Z"/><path d="M29.6,19.2a.8.8,0,1,1-.8-.8.86.86,0,0,1,.8.8Z"/><path d="M35.2,19.2a.8.8,0,1,1-.8-.8.86.86,0,0,1,.8.8Z"/><path d="M40.8,19.2a.8.8,0,1,1-.8-.8.86.86,0,0,1,.8.8Z"/><path d="M7.2,25.6a.86.86,0,0,1-.8.8.8.8,0,0,1,0-1.6.86.86,0,0,1,.8.8Z"/><path d="M12.8,25.6a.8.8,0,1,1-.8-.8.86.86,0,0,1,.8.8Z"/><path d="M18.4,25.6a.8.8,0,1,1-.8-.8.86.86,0,0,1,.8.8Z"/><path d="M24,25.6a.8.8,0,1,1-.8-.8.86.86,0,0,1,.8.8Z"/><path d="M29.6,25.6a.8.8,0,1,1-.8-.8.86.86,0,0,1,.8.8Z"/><path d="M35.2,25.6a.8.8,0,1,1-.8-.8.86.86,0,0,1,.8.8Z"/><path d="M40.8,25.6a.8.8,0,1,1-.8-.8.86.86,0,0,1,.8.8Z"/><path d="M7.2,31.2a.86.86,0,0,1-.8.8.8.8,0,1,1,0-1.6.86.86,0,0,1,.8.8Z"/><path d="M12.8,31.2a.8.8,0,1,1-.8-.8.86.86,0,0,1,.8.8Z"/><path d="M18.4,31.2a.8.8,0,1,1-.8-.8.86.86,0,0,1,.8.8Z"/><path d="M24,31.2a.8.8,0,1,1-.8-.8.86.86,0,0,1,.8.8Z"/><path d="M29.6,31.2a.8.8,0,1,1-.8-.8.86.86,0,0,1,.8.8Z"/><path d="M35.2,31.2a.8.8,0,1,1-.8-.8.86.86,0,0,1,.8.8Z"/><path d="M40.8,31.2a.8.8,0,1,1-.8-.8.86.86,0,0,1,.8.8Z"/><path d="M7.2,37.6a.86.86,0,0,1-.8.8.8.8,0,0,1,0-1.6.86.86,0,0,1,.8.8Z"/><path d="M12.8,37.6a.8.8,0,1,1-.8-.8.86.86,0,0,1,.8.8Z"/><path d="M18.4,37.6a.8.8,0,1,1-.8-.8.86.86,0,0,1,.8.8Z"/><path d="M24,37.6a.8.8,0,1,1-.8-.8.86.86,0,0,1,.8.8Z"/><path d="M29.6,37.6a.8.8,0,1,1-.8-.8.86.86,0,0,1,.8.8Z"/></svg>