<?xml version="1.0" encoding="utf-8"?>
<!-- Generator: Adobe Illustrator 22.0.0, SVG Export Plug-In . SVG Version: 6.00 Build 0)  -->
<svg version="1.1" id="Layer_1" xmlns="http://www.w3.org/2000/svg" xmlns:xlink="http://www.w3.org/1999/xlink" x="0px" y="0px"
	 viewBox="0 0 612 792" style="enable-background:new 0 0 612 792;" xml:space="preserve">
<g>
	<path d="M305.4,387c-5.2,0-9.4,4.2-9.4,9.4c0,5.2,4.2,9.5,9.4,9.5c5.2,0,9.5-4.2,9.5-9.5C314.9,391.2,310.7,387,305.4,387
		L305.4,387z M307.4,401.6c-0.5,0.2-0.9,0.3-1.2,0.4c-0.3,0.1-0.6,0.2-1,0.2c-0.6,0-1-0.1-1.4-0.4c-0.3-0.3-0.5-0.7-0.5-1.1
		c0-0.2,0-0.3,0-0.5c0-0.2,0.1-0.4,0.1-0.6l0.6-2.2c0.1-0.2,0.1-0.4,0.1-0.6c0-0.2,0.1-0.4,0.1-0.5c0-0.3-0.1-0.5-0.2-0.6
		c-0.1-0.1-0.3-0.2-0.6-0.2c-0.2,0-0.3,0-0.5,0.1c-0.2,0.1-0.3,0.1-0.4,0.1l0.2-0.7c0.4-0.2,0.8-0.3,1.1-0.4c0.4-0.1,0.7-0.2,1-0.2
		c0.6,0,1,0.1,1.4,0.4c0.3,0.3,0.5,0.6,0.5,1.1c0,0.1,0,0.3,0,0.5c0,0.2-0.1,0.5-0.1,0.6l-0.6,2.1c-0.1,0.2-0.1,0.4-0.1,0.6
		c0,0.2-0.1,0.4-0.1,0.5c0,0.3,0.1,0.5,0.2,0.6c0.1,0.1,0.3,0.2,0.7,0.2c0.1,0,0.3,0,0.5-0.1c0.2-0.1,0.3-0.1,0.4-0.1L307.4,401.6z
		 M307.3,392.9c-0.3,0.3-0.6,0.4-1,0.4c-0.4,0-0.7-0.1-1-0.4c-0.3-0.3-0.4-0.6-0.4-1c0-0.4,0.1-0.7,0.4-1c0.3-0.3,0.6-0.4,1-0.4
		c0.4,0,0.7,0.1,1,0.4c0.3,0.3,0.4,0.6,0.4,1C307.7,392.4,307.6,392.7,307.3,392.9L307.3,392.9z M307.3,392.9"/>
</g>
</svg>
