<svg id="Layer_1" data-name="Layer 1" xmlns="http://www.w3.org/2000/svg" viewBox="0 0 49.61 72"><title>localization</title><path d="M48.5,17.9A25.15,25.15,0,0,0,47.3,15C42.7,3.9,32.6,0,24.5,0,13.6,0,1.6,7.3,0,22.3v3.1a15.76,15.76,0,0,0,.1,1.9C1,34.5,6.7,42.1,10.9,49.2c4.5,7.7,9.3,15.2,13.9,22.8,2.9-4.9,5.8-9.9,8.6-14.7.8-1.4,1.7-2.8,2.4-4.2.5-.9,1.5-1.8,1.9-2.6,4.5-8.3,11.9-16.7,11.9-25V22.1a18.1,18.1,0,0,0-1.1-4.2ZM24.8,33.3a8.75,8.75,0,0,1-8.4-6,6.41,6.41,0,0,1-.2-2.2v-2c0-5.6,4.8-8.2,8.9-8.2a9.09,9.09,0,0,1,9.1,9.2,9.41,9.41,0,0,1-9.4,9.2Z"/></svg>