<svg id="Layer_1" data-name="Layer 1" xmlns="http://www.w3.org/2000/svg" viewBox="0 0 43.9 47.7"><title>stopwatch</title><path d="M25.1,24.4,14.7,16.9a.76.76,0,0,0-1,.1.77.77,0,0,0-.1,1l7.5,10.4a2.84,2.84,0,0,0,2.1,1.2h.2a2.79,2.79,0,0,0,2-.8,2.65,2.65,0,0,0,.8-2.2,2.66,2.66,0,0,0-1.1-2.2Zm-.8,3.2a1.28,1.28,0,0,1-1,.4,1.05,1.05,0,0,1-.9-.5l-4.6-6.3,6.3,4.6a1.19,1.19,0,0,1,.5.9.81.81,0,0,1-.3.9Z" transform="translate(-1.2)"/><path d="M43.9,20.8h0a23.6,23.6,0,0,0-2.1-5.2h0a18.19,18.19,0,0,0-2.9-3.8l1.7-1.7,1.1,1.1,3.4-3.4L41.7,4.4,38.3,7.8l1.1,1.1-1.7,1.7a34.72,34.72,0,0,0-3.8-2.9h-.1a22.82,22.82,0,0,0-5.1-2.1h0A16.47,16.47,0,0,0,25.5,5V4h1.2a2,2,0,0,0,0-4H19.5a2,2,0,0,0,0,4h1.2v.9a18,18,0,0,0-3.2.6h0a22.82,22.82,0,0,0-5.1,2.1h0a18.19,18.19,0,0,0-3.8,2.9L6.9,8.8,8,7.7,4.6,4.3,1.2,7.7l3.4,3.4L5.7,10l1.7,1.7a34.72,34.72,0,0,0-2.9,3.8h0a22.82,22.82,0,0,0-2.1,5.1h0a21,21,0,0,0-.7,5.6,26,26,0,0,0,.7,5.6h0a21,21,0,0,0,2.1,5.1v.2a20.71,20.71,0,0,0,3.4,4.4h0a24.57,24.57,0,0,0,4.4,3.4h.1A22.82,22.82,0,0,0,17.5,47h0a20.47,20.47,0,0,0,5.6.7,26,26,0,0,0,5.6-.7h0a22.82,22.82,0,0,0,5.1-2.1h.1a20.71,20.71,0,0,0,4.4-3.4h0a24.57,24.57,0,0,0,3.4-4.4l.1-.1v-.1a22.82,22.82,0,0,0,2.1-5.1h0a20.47,20.47,0,0,0,.7-5.6,17.08,17.08,0,0,0-.7-5.4ZM41.7,6.6l1.1,1.1L41.7,8.8,40.6,7.7ZM3.3,7.7,4.4,6.6,5.5,7.7,4.4,8.8ZM40.6,31.9l1.5.4a20.25,20.25,0,0,1-1.4,3.4l-1.4-.8a.81.81,0,1,0-.8,1.4l1.4.8A20.13,20.13,0,0,1,37.7,40l-1.1-1.1A.78.78,0,1,0,35.5,40l1.1,1.1a20.14,20.14,0,0,1-2.9,2.2l-.8-1.4a.81.81,0,1,0-1.4.8l.8,1.4a20.25,20.25,0,0,1-3.4,1.4L28.5,44a.82.82,0,0,0-1.6.4l.4,1.5a22.27,22.27,0,0,1-3.6.5V44.8a.8.8,0,0,0-1.6,0v1.6a14.87,14.87,0,0,1-3.6-.5l.4-1.5a.82.82,0,0,0-1.6-.4l-.4,1.5a20.25,20.25,0,0,1-3.4-1.4l.8-1.4a.81.81,0,1,0-1.4-.8l-.8,1.4a31.55,31.55,0,0,1-2.9-2.2L10.3,40a.78.78,0,0,0-1.1-1.1L8.1,40a20.14,20.14,0,0,1-2.2-2.9l1.4-.8a.81.81,0,1,0-.8-1.4l-1.4.8a20.25,20.25,0,0,1-1.4-3.4l1.5-.4a.82.82,0,0,0-.4-1.6l-1.5.4a22.27,22.27,0,0,1-.5-3.6H4.4a.8.8,0,0,0,0-1.6H2.8a14.87,14.87,0,0,1,.5-3.6l1.5.4H5a.76.76,0,0,0,.8-.6.8.8,0,0,0-.6-1l-1.5-.4A16.37,16.37,0,0,1,5.1,17l1.4.8a.6.6,0,0,0,.4.1.75.75,0,0,0,.7-.4.8.8,0,0,0-.3-1.1l-1.4-.8a20.13,20.13,0,0,1,2.2-2.9l1.1,1.1a.73.73,0,0,0,.6.2,1.42,1.42,0,0,0,.6-.2.78.78,0,0,0,0-1.1L9.3,11.6a20.14,20.14,0,0,1,2.9-2.2l.8,1.4a.67.67,0,0,0,.7.4.6.6,0,0,0,.4-.1.8.8,0,0,0,.3-1.1l-.8-1.4a23.29,23.29,0,0,1,3.3-1.4l.4,1.5a.76.76,0,0,0,.8.6h.2a.83.83,0,0,0,.6-1l-.4-1.5a13.52,13.52,0,0,1,2.9-.4h.7V8a.8.8,0,0,0,1.6,0V6.4h.7a28.86,28.86,0,0,1,2.9.4l-.4,1.5a.8.8,0,0,0,.6,1h.2a.76.76,0,0,0,.8-.6l.4-1.5a20.25,20.25,0,0,1,3.4,1.4L31.5,10a.8.8,0,0,0,.3,1.1.6.6,0,0,0,.4.1.75.75,0,0,0,.7-.4l.8-1.4a20.13,20.13,0,0,1,2.9,2.2l-1.1,1.1a.78.78,0,0,0,0,1.1.73.73,0,0,0,.6.2,1.42,1.42,0,0,0,.6-.2l1.1-1.1A20.14,20.14,0,0,1,40,15.6l-1.4.8a.8.8,0,0,0-.3,1.1.67.67,0,0,0,.7.4.6.6,0,0,0,.4-.1l1.4-.8a23.29,23.29,0,0,1,1.4,3.3l-1.5.4a.89.89,0,0,0-.6,1,.76.76,0,0,0,.8.6h.2l1.5-.4a22.27,22.27,0,0,1,.5,3.6H41.5a.8.8,0,0,0,0,1.6h1.6a22.27,22.27,0,0,1-.5,3.6l-1.5-.4a.8.8,0,0,0-1,.6.72.72,0,0,0,.5,1ZM22.3,4.8V2.4H19.5a.43.43,0,0,1-.4-.4.43.43,0,0,1,.4-.4h7.2a.43.43,0,0,1,.4.4.43.43,0,0,1-.4.4H23.9V4.8H22.3Z" transform="translate(-1.2)"/></svg>