<svg id="Layer_1" data-name="Layer 1" xmlns="http://www.w3.org/2000/svg" xmlns:xlink="http://www.w3.org/1999/xlink" viewBox="0 0 17.97 42.69"><defs><style>.cls-1{fill:none;}.cls-2{clip-path:url(#clip-path);}.cls-3{fill:#0e0f0f;}</style><clipPath id="clip-path" transform="translate(0.08)"><rect class="cls-1" width="19" height="43"/></clipPath></defs><title>user</title><g class="cls-2"><path class="cls-3" d="M12.6,3.6A3.6,3.6,0,1,1,9,0a3.59,3.59,0,0,1,3.6,3.6Z" transform="translate(0.08)"/></g><g class="cls-2"><path class="cls-3" d="M10.2,8.9a6.61,6.61,0,0,0-2.8,0C1.4,9.6-.5,16.5,0,21.8c.2,2.3,3.8,2.3,3.6,0a14.06,14.06,0,0,1,.9-6.9v7.9c0,6,0,12-.3,17.9-.1,2.7,4,2.6,4.1,0,.2-4.7.2-9.4.3-14.1h.6c0,4.7.1,9.4.2,14.1.1,2.6,4.2,2.7,4.1,0-.2-6-.3-12-.3-17.9a.75.75,0,0,0-.1-.5c0-2.6-.1-5.2-.1-7.8,1.2,2.1,1.3,5.2,1.1,7.3-.2,2.3,3.4,2.3,3.6,0,.9-5.3-1.2-12.4-7.5-12.9Z" transform="translate(0.08)"/></g></svg>