<svg id="Layer_1" data-name="Layer 1" xmlns="http://www.w3.org/2000/svg" viewBox="0 0 646.59 746.79"><defs><style>.cls-1{fill:#f74537;}.cls-2{fill:#bc3131;}.cls-3{fill:#962f2f;}.cls-4{fill:#c7c7cc;}.cls-5{fill:#9a92ae;}.cls-6{fill:#3c3c47;}.cls-7{fill:#494956;}.cls-8{fill:#0e2244;}.cls-9{fill:#968eab;}.cls-10{fill:#9c98ab;}.cls-11{fill:#ffc550;}.cls-12{fill:#ffdb69;}.cls-13,.cls-20,.cls-22,.cls-30,.cls-32,.cls-33,.cls-39,.cls-44,.cls-50,.cls-52{fill:none;}.cls-13{stroke:#fff;stroke-linejoin:round;stroke-width:3.02px;}.cls-14{fill:#ffccb4;}.cls-15{fill:#fff;}.cls-16{fill:#0c224b;}.cls-17{fill:#5b173a;}.cls-18{fill:#0c1640;}.cls-19{fill:#656374;}.cls-20,.cls-22,.cls-32,.cls-33{stroke:#0c1640;stroke-linecap:round;}.cls-20,.cls-22,.cls-30,.cls-32,.cls-33,.cls-39,.cls-44,.cls-50,.cls-52{stroke-miterlimit:10;}.cls-20{stroke-width:1.46px;}.cls-21{fill:#777385;}.cls-22,.cls-30{stroke-width:1.46px;}.cls-23{fill:#f7ac92;}.cls-24{fill:#ea8b34;}.cls-25{fill:#ffc9c0;}.cls-26{fill:#0e1032;}.cls-27{fill:#ecedf0;}.cls-28{fill:#df3a37;}.cls-29{fill:#0c204b;}.cls-30{stroke:#9c98ab;}.cls-31{fill:#2e3768;}.cls-32{stroke-width:1.92px;}.cls-33{stroke-width:1.75px;}.cls-34{fill:#595a70;}.cls-35{fill:#0e254a;}.cls-36{fill:#f66438;}.cls-37{fill:#ffac3d;}.cls-38{fill:#323966;}.cls-39{stroke:#0e254a;stroke-width:4.65px;}.cls-40{fill:#5e1f3f;}.cls-41{fill:#e8eaec;}.cls-42{fill:#d04234;}.cls-43{fill:#fa7c50;}.cls-44,.cls-50,.cls-52{stroke:#968eab;}.cls-44{stroke-width:1.28px;}.cls-45{fill:#122f51;}.cls-46{fill:#ffa280;}.cls-47{fill:#afaac4;}.cls-48{fill:#827c91;}.cls-49{fill:#c4c4c9;}.cls-50{stroke-width:1.57px;}.cls-51{fill:#65354d;}.cls-52{stroke-width:1.3px;}.cls-53{fill:#4257a4;}.cls-54{fill:#31477d;}.cls-55{fill:#ffd533;}.cls-56{fill:#a1cf3a;}.cls-57{fill:#709d2b;}.cls-58{fill:#4e8530;}.cls-59{fill:#53803a;}.cls-60{fill:#3d6a3a;}.cls-61{fill:#63b259;}.cls-62{fill:#a0533b;}.cls-63{fill:#4c79c1;}</style></defs><title>organization</title><path class="cls-1" d="M438.48,645.47h0c7.19-1-5.3-7.65-6.27-14.84l7.64-73.68L428,469.18c-1-7.19-6.84-11.31-14.84-11.31h-112l25.32,187.59Z" transform="translate(-124.67 -53.2)"/><path class="cls-2" d="M315.28,562.23l5.52,40.88,4.67,34.66H448.76a13.08,13.08,0,0,0,1-7.14l-3.71-27.52-5.52-40.88Z" transform="translate(-124.67 -53.2)"/><path class="cls-3" d="M320.79,603.1l4.67,34.66H448.76a13.08,13.08,0,0,0,1-7.14l-3.71-27.52Z" transform="translate(-124.67 -53.2)"/><path class="cls-3" d="M311.67,634.15,289.88,472.71a13.23,13.23,0,0,1,11.31-14.84h0A13.23,13.23,0,0,1,316,469.18l21.79,161.44a13.23,13.23,0,0,1-11.31,14.84h0A13.23,13.23,0,0,1,311.67,634.15Z" transform="translate(-124.67 -53.2)"/><rect class="cls-4" x="261.62" y="603.07" width="15.35" height="90.53"/><path class="cls-5" d="M401.64,661.54V682l-15.35,12V662.21C390.13,662,397.53,661.72,401.64,661.54Z" transform="translate(-124.67 -53.2)"/><path class="cls-6" d="M500.63,663.59H334.28a6.88,6.88,0,0,1-6.86-6.86h0a6.88,6.88,0,0,1,6.86-6.86H500.63a6.88,6.88,0,0,1,6.86,6.86h0A6.88,6.88,0,0,1,500.63,663.59Z" transform="translate(-124.67 -53.2)"/><path class="cls-2" d="M507.53,655.36H384.27a17.2,17.2,0,0,1-17.15-17.15h0a17.2,17.2,0,0,1,17.15-17.15H507.53a17.2,17.2,0,0,1,17.15,17.15h0A17.2,17.2,0,0,1,507.53,655.36Z" transform="translate(-124.67 -53.2)"/><rect class="cls-3" x="188.95" y="568.31" width="97.35" height="34.3" rx="17.15" ry="17.15"/><path class="cls-7" d="M467.91,777h-9.6a20.83,20.83,0,0,0-20.8-20.8H349.77A20.83,20.83,0,0,0,329,777h-9.6a30.44,30.44,0,0,1,30.41-30.41H437.5A30.44,30.44,0,0,1,467.91,777Z" transform="translate(-124.67 -53.2)"/><rect class="cls-7" x="257.99" y="678.97" width="22.4" height="14.63"/><circle class="cls-8" cx="199.13" cy="733.06" r="7.98"/><path class="cls-4" d="M335.3,785.56H313.47v-2a10.91,10.91,0,0,1,10.91-10.91h0a10.91,10.91,0,0,1,10.91,10.91Z" transform="translate(-124.67 -53.2)"/><circle class="cls-8" cx="338.89" cy="733.06" r="7.98"/><path class="cls-4" d="M339.47,719.44h0a10.91,10.91,0,0,1,10.91,10.91v2a0,0,0,0,1,0,0H328.56a0,0,0,0,1,0,0v-2A10.91,10.91,0,0,1,339.47,719.44Z"/><rect class="cls-7" x="263.29" y="696.34" width="12.71" height="28.81"/><circle class="cls-8" cx="269.91" cy="733.06" r="7.98"/><path class="cls-4" d="M270.5,719.44h0a10.91,10.91,0,0,1,10.91,10.91v2a0,0,0,0,1,0,0H259.59a0,0,0,0,1,0,0v-2A10.91,10.91,0,0,1,270.5,719.44Z"/><path class="cls-9" d="M747,799.76H133.47a8.82,8.82,0,0,1-8.79-8.79h0a8.82,8.82,0,0,1,8.79-8.79H747a8.82,8.82,0,0,1,8.79,8.79h0A8.82,8.82,0,0,1,747,799.76Z" transform="translate(-124.67 -53.2)"/><rect class="cls-10" x="474.65" y="121.93" width="36.24" height="18.95"/><circle class="cls-11" cx="492.04" cy="81.48" r="35.47"/><rect class="cls-11" x="473.92" y="99.59" width="37.73" height="24.67"/><circle class="cls-12" cx="492.41" cy="82.24" r="26.79"/><path class="cls-13" d="M609.16,176.19l-10.38-49.05s5.85,6.6,10.94,5.47,6.41-10,1.7-9.81-4.15,13,7,12.83c13.93-.24,9.43-11.51,6-11.32-5.3.29-5.66,11.32,2.83,11.51s11.51-8.11,11.51-8.11l-14,48.11" transform="translate(-124.67 -53.2)"/><path class="cls-10" d="M619.68,205.25h-5.56A16.06,16.06,0,0,1,599,193.93h35.85A16.06,16.06,0,0,1,619.68,205.25Z" transform="translate(-124.67 -53.2)"/><path class="cls-11" d="M588.23,99.94h0a4,4,0,0,0,.45-4.81l-12.51-20a8.24,8.24,0,0,0-12.81-1.45h0a8.24,8.24,0,0,0,.81,12.36l18.71,14.34A4,4,0,0,0,588.23,99.94Z" transform="translate(-124.67 -53.2)"/><path class="cls-11" d="M572.39,123.27h0a4,4,0,0,0-2.91-3.86l-22.7-6.35a8.24,8.24,0,0,0-10.45,7.55h0a8.24,8.24,0,0,0,8.92,8.6l23.49-2A4,4,0,0,0,572.39,123.27Z" transform="translate(-124.67 -53.2)"/><path class="cls-11" d="M615.84,89.33h0a4,4,0,0,0,3.44-3.4l3.27-23.34a8.24,8.24,0,0,0-8.87-9.35h0a8.24,8.24,0,0,0-7.33,10l5.1,23A4,4,0,0,0,615.84,89.33Z" transform="translate(-124.67 -53.2)"/><path class="cls-11" d="M642.07,100.42h0a4,4,0,0,0,4.81-.45L664.2,84a8.24,8.24,0,0,0-.94-12.85h0a8.24,8.24,0,0,0-12,3.09l-10.63,21A4,4,0,0,0,642.07,100.42Z" transform="translate(-124.67 -53.2)"/><path class="cls-11" d="M660,118.64h0a4,4,0,0,0,4,2.7l23.53-1.42a8.24,8.24,0,0,0,7.41-10.55h0a8.24,8.24,0,0,0-11.24-5.21l-21.54,9.56A4,4,0,0,0,660,118.64Z" transform="translate(-124.67 -53.2)"/><rect class="cls-14" x="596.5" y="268.15" width="31.2" height="6.55" rx="2.94" ry="2.94" transform="translate(892.41 -315.01) rotate(103.3)"/><rect class="cls-14" x="600.96" y="279.07" width="26.34" height="6.55" rx="2.94" ry="2.94" transform="translate(991.77 -223.13) rotate(113.31)"/><rect class="cls-14" x="590.68" y="281.22" width="26.34" height="6.55" rx="2.94" ry="2.94" transform="matrix(0.03, 1, -1, 0.03, 748.29, -379.57)"/><rect class="cls-14" x="603.31" y="284.99" width="29.98" height="6.55" rx="2.94" ry="2.94" transform="translate(1001.16 -220.79) rotate(113.07)"/><rect class="cls-14" x="607" y="290.75" width="29.98" height="6.55" rx="2.94" ry="2.94" transform="translate(1011.59 -216.17) rotate(113.07)"/><path class="cls-14" d="M608.36,274.46c-.1.24-1.58,2.84-3.18,5.65A35.22,35.22,0,0,0,600.56,296l-.5,10.69s16.95,3.06,17.43,2.46c11.86-14.6,7.56-24.22,7.56-24.22Z" transform="translate(-124.67 -53.2)"/><polygon class="cls-15" points="470.65 252.6 474.19 243.55 500.16 254.57 494.65 264.8 470.65 252.6"/><path class="cls-16" d="M624.44,314.46s-22.76,55.69-22.82,55.88c-6.69,17.21-23.66,30.47-42.11,28.33a85.06,85.06,0,0,1-12.59-3.15c-3.7-1.32-43.67-26.35-43.67-26.35l-4.76-45.42s49.33,34.57,52.18,36.37c4.87,3.08,11.45,4.47,14,3.49,4.55-1.67,6.58-3.76,8.85-7.59,11.21-18.8,21.78-54.16,21.78-54.16Z" transform="translate(-124.67 -53.2)"/><path class="cls-17" d="M498.21,737.07c-.16,2.18-1,33.34-1,33.34l23,.43-.51-39Z" transform="translate(-124.67 -53.2)"/><path class="cls-18" d="M487.6,525.28c0,.26,0,1.71.06,4.19,1.13,36.28,7.49,234.18,7.49,234.18l29.72-1L532.72,531Z" transform="translate(-124.67 -53.2)"/><path class="cls-19" d="M495.05,789.5l60.79.44a6.58,6.58,0,0,0,6.61-6.55h0a6.6,6.6,0,0,0-4.36-6.27l-30-10.77-32.88.57Z" transform="translate(-124.67 -53.2)"/><line class="cls-20" x1="402.67" y1="722.08" x2="409.8" y2="714.41"/><line class="cls-20" x1="407.9" y1="724.3" x2="415.04" y2="716.63"/><line class="cls-20" x1="412.91" y1="727.27" x2="420.94" y2="718.57"/><path class="cls-17" d="M446,736.69c-.13,2.17-.44,33.16-.44,33.16l23,0-1.2-38.81Z" transform="translate(-124.67 -53.2)"/><path class="cls-18" d="M431.7,526.35c0,.26,0,1.7.13,4.16,1.77,36,11.61,232.64,11.61,232.64l29.7-1.53,3.78-230.42Z" transform="translate(-124.67 -53.2)"/><path class="cls-21" d="M443.35,789l60.74,2.35A6.56,6.56,0,0,0,510.9,785h0a6.56,6.56,0,0,0-4.16-6.36L477.09,767l-32.88-.47Z" transform="translate(-124.67 -53.2)"/><line class="cls-22" x1="351.4" y1="722.67" x2="358.78" y2="715.27"/><line class="cls-22" x1="356.56" y1="725.04" x2="363.93" y2="717.64"/><line class="cls-22" x1="361.47" y1="728.15" x2="369.78" y2="719.75"/><path class="cls-18" d="M534.32,520a27.46,27.46,0,0,1-24.69,30l-45.92,4.44a26.15,26.15,0,0,1-4,.08,26.78,26.78,0,0,1-9.69-2.3c-.53-.23-1.06-.48-1.57-.76a27.41,27.41,0,0,1-14.65-21.69l-.57-14.65L532,504.68Z" transform="translate(-124.67 -53.2)"/><rect class="cls-23" x="452.68" y="272.85" width="31.51" height="58.41" rx="10.88" ry="10.88" transform="translate(-155.77 1.6) rotate(-6.48)"/><path class="cls-24" d="M524.37,235.64q0,1.11,0,2.21a49.63,49.63,0,0,1-26.34,43.76,49.38,49.38,0,0,1-21.16,5.75c-12.39.53-22.47,6.53-31.48-.62a49.18,49.18,0,0,1-7.85-7.78c-.91-1.14-1.77-2.29-2.58-3.49-4.91-7.32-9.41-26.11-9.81-35.56a49.66,49.66,0,0,1,45.2-51.59q1.13-.09,2.25-.14A49.56,49.56,0,0,1,514,207.32h0a49.56,49.56,0,0,1,10.36,28.3Z" transform="translate(-124.67 -53.2)"/><path class="cls-25" d="M459.83,253.22a8.36,8.36,0,0,1-.39,3.13,9.59,9.59,0,0,1-1.81,3.42,9,9,0,0,1-6.09,3.16l-5.27.32-4,.25-.76-12h0l-.15-2.22-.11-1.72-.09-1.58,0-.41h0l9.29-.57a8.87,8.87,0,0,1,8.63,5.15A8,8,0,0,1,459.83,253.22Z" transform="translate(-124.67 -53.2)"/><path class="cls-14" d="M522.84,240.94l1.2,19.39.18,2.9a39.62,39.62,0,0,1,0,5.68,40.74,40.74,0,0,1-31.1,36.19,14.86,14.86,0,0,1-1.56.34,38.69,38.69,0,0,1-5.63.76,41.56,41.56,0,0,1-15.77-2.1h0a40.73,40.73,0,0,1-27.22-32.49c-.07-.46-.13-.91-.17-1.38a15.59,15.59,0,0,1-.16-1.64l0-.29-.09-1.31-.2-3.46-.76-11.87v-.12h0l-.13-2.2-.11-1.72-.09-1.58,0-.41a32.67,32.67,0,0,1,.61-8.06,44,44,0,0,1,1.36-5.37c.07-.29.15-.53.23-.79a37.42,37.42,0,0,1,1.64-4.23.05.05,0,0,1,0,0A40.9,40.9,0,0,1,455,213.46c.85-.76,1.74-1.49,2.65-2.18a41.53,41.53,0,0,1,52.23,1.79,39.33,39.33,0,0,1,9.64,13.33,29.93,29.93,0,0,1,2.1,6.09A48.51,48.51,0,0,1,522.84,240.94Z" transform="translate(-124.67 -53.2)"/><path class="cls-25" d="M445.51,251.22l.75,12,.5,8.13-3.19.2a5.18,5.18,0,0,1-.69,0,10.5,10.5,0,0,1-10.24-9.75,9.66,9.66,0,0,1,2.58-7.17,9.92,9.92,0,0,1,6.25-3.15h0a4,4,0,0,1,.83-.09Z" transform="translate(-124.67 -53.2)"/><path class="cls-23" d="M484.76,306.16a27.14,27.14,0,0,1-14.63-2.08h0a40.73,40.73,0,0,1-27.22-32.49,10.5,10.5,0,0,1-10.24-9.75,9.66,9.66,0,0,1,2.58-7.17,9.92,9.92,0,0,1,6.25-3.15h0l-.13-2.2-.11-1.72-.09-1.58,0-.41h0a32.67,32.67,0,0,1,.61-8.06c5.13-3.68,10.65-4.9,14.61,1.6,0,0,0,3.14.29,7.9.18,3.56.49,8,1,12.74,1,9.7,2.82,20.46,6.06,26.75C470.59,299.95,484.76,306.16,484.76,306.16Z" transform="translate(-124.67 -53.2)"/><rect class="cls-24" x="446.94" y="200.87" width="81.51" height="15.71" rx="7.05" ry="7.05" transform="translate(-145.11 3.18) rotate(-6.48)"/><path class="cls-24" d="M536.22,217.53a10.36,10.36,0,0,1-8.72,13.27l-59.61,6.77a15.58,15.58,0,0,0-13.72,17.24l1.09,9.64a5.87,5.87,0,0,1-5.15,6.48l-1.38.16a5.85,5.85,0,0,1-6.48-5.15l-3.3-29a5,5,0,0,1,0-.67,10.19,10.19,0,0,1-2.39-5.49,10.37,10.37,0,0,1,9.1-11.45l79.11-9A10.65,10.65,0,0,1,536.22,217.53Z" transform="translate(-124.67 -53.2)"/><rect class="cls-24" x="503.15" y="238.95" width="17.51" height="4.62" rx="2.07" ry="2.07" transform="translate(-148.63 6.12) rotate(-6.48)"/><rect class="cls-24" x="471.97" y="242.5" width="17.51" height="4.62" rx="2.07" ry="2.07" transform="translate(-149.23 2.62) rotate(-6.48)"/><path class="cls-15" d="M492.94,278.87a9.52,9.52,0,0,0,8.29,3.3c3.68-.23,7.63-2.34,8.55-5.41Z" transform="translate(-124.67 -53.2)"/><path class="cls-23" d="M506.07,266.76c0,.06-.25,0-.25,0,.17,2.07-1.43,3.9-5.86,4.28l-2.36-16.17C503,260.33,505.37,263.43,506.07,266.76Z" transform="translate(-124.67 -53.2)"/><path class="cls-26" d="M435.74,541.35s40.38-4.38,39.89-5.84-.49-18.49-.49-18.49,32.11-5.35,32.11-3.41,2.92,17,2.92,17L534,526.27l-.49-25.3L429.9,511.68Z" transform="translate(-124.67 -53.2)"/><rect class="cls-27" x="458.55" y="314.24" width="43.06" height="188.1" transform="translate(-158.36 -9.91) rotate(-4.99)"/><polygon class="cls-28" points="350.87 280.8 338.76 266.4 348.17 259.6 360.31 264.52 350.87 280.8"/><polygon class="cls-15" points="369.27 269.77 348.96 260.32 326.49 274.19 325.22 259.65 367.99 256.63 369.27 269.77"/><polygon class="cls-10" points="387.49 454.94 342.61 459.55 341.81 450.37 386.69 445.76 387.49 454.94"/><rect class="cls-29" x="486.38" y="501.08" width="15.69" height="9.49" transform="translate(-166.78 -8.31) rotate(-4.99)"/><path class="cls-16" d="M468.95,530.23a120.07,120.07,0,0,1-23,4.5,136.17,136.17,0,0,1-16.77.77,3.67,3.67,0,0,1-1.05-.23l-9.81-129c-2.58-21.6-1.82-33.06-2.1-50.88,0-2.45-.1-5-.19-7.75a16.19,16.19,0,0,1,.48-4.58c1.9-7.57,9.06-12.86,16.9-16.8a144,144,0,0,1,13.87-5.82c2-.74.77-.12,2.88-.41Z" transform="translate(-124.67 -53.2)"/><path class="cls-16" d="M539.85,522.38l-8,.74-18.3,1.69s-21.34-206-19.46-205.31a44.21,44.21,0,0,1,10,5.47,51.12,51.12,0,0,1,17.4,21.22,38,38,0,0,1,2.42,8,2.55,2.55,0,0,1,.07.32C527.23,372.13,539.85,522.38,539.85,522.38Z" transform="translate(-124.67 -53.2)"/><line class="cls-30" x1="351.11" y1="281.53" x2="367.16" y2="449.38"/><path class="cls-31" d="M459.54,422.16c.87,1.74-21.37-62.76-21.37-62.76l7.26-7.3-12.85-25.86,17.05-11.37S458.08,419.24,459.54,422.16Z" transform="translate(-124.67 -53.2)"/><path class="cls-31" d="M503.13,421.39c-.53,1.87,9-65.4,9-65.4L504,349.93l6-24-17.76-13.14S504,418.25,503.13,421.39Z" transform="translate(-124.67 -53.2)"/><path class="cls-23" d="M443.58,545.93c.11-.25,12.66-12,10.8-14.69a68.66,68.66,0,0,0-11.65-13l-8.31-7.13S423.9,522,423.33,522.49c-7.92,7.58,10.27,19.71,10.27,19.71S441.16,551.42,443.58,545.93Z" transform="translate(-124.67 -53.2)"/><rect class="cls-23" x="439.89" y="533.61" width="31.92" height="6.7" rx="3.01" ry="3.01" transform="translate(313.88 1187.9) rotate(-138.26)"/><rect class="cls-23" x="439.27" y="541.44" width="26.95" height="6.7" rx="3.01" ry="3.01" transform="matrix(-0.75, -0.67, 0.67, -0.75, 303.23, 1199.51)"/><rect class="cls-23" x="426.27" y="542.09" width="30.66" height="6.7" rx="3.01" ry="3.01" transform="translate(283.34 1193.22) rotate(-138.26)"/><rect class="cls-23" x="430.49" y="517.45" width="31.92" height="6.7" rx="3.01" ry="3.01" transform="translate(531.41 1120.75) rotate(-157.19)"/><polygon class="cls-15" points="315.66 457.98 313.24 455.82 307.86 451.04 292.46 468.3 289.24 471.92 290.27 472.84 292.54 474.87 297.03 478.87 297.89 477.9 308.74 465.74 313.13 460.82 313.45 460.46 315.66 457.98"/><path class="cls-16" d="M431.27,356.22,423.92,338l-2-1.71c-.25.3-3.67,4.35-8.51,11-4.12,5.66-9.28,13.19-14.38,21.86-15.6,26.56-22.9,50.34-21.71,70.7,2.48,42.32,34.39,85.79,35.75,87.62l1.89-1.4,3.47-2.57,14.29-10.6,2-1.48,3.18-2.37,2.16-1.6c-.26-.36-27.29-37.34-29.18-69.57-1.44-24.57,10.76-43.15,23.22-59.5C435.89,376,429.93,357.81,431.27,356.22Z" transform="translate(-124.67 -53.2)"/><polygon class="cls-28" points="347.46 274.96 351.11 391.72 362.78 406.68 370.44 390.99 353.3 274.96 347.46 274.96"/><path class="cls-32" d="M477.92,259.32s2.2-4.42,6.29-4.65a7,7,0,0,1,6.07,2.78" transform="translate(-124.67 -53.2)"/><path class="cls-33" d="M507.27,255.24s1.33-4.61,4.74-4.88,5.88,2.88,5.88,2.88" transform="translate(-124.67 -53.2)"/><rect class="cls-34" x="470.15" y="120.35" width="44.52" height="6.04" rx="2.71" ry="2.71"/><rect class="cls-34" x="470.15" y="129.88" width="44.52" height="6.04" rx="2.71" ry="2.71"/><rect class="cls-34" x="470.15" y="139.42" width="44.52" height="6.04" rx="2.71" ry="2.71"/><path class="cls-35" d="M610.4,434h0a11.05,11.05,0,0,1,.84-16l.55-.48a12.08,12.08,0,0,1,16.62.81h0a11.05,11.05,0,0,1-.84,16l-.55.48A12.08,12.08,0,0,1,610.4,434Z" transform="translate(-124.67 -53.2)"/><path class="cls-36" d="M619.65,456.51l-11.46,10-32.54-34.71,11.46-10a25,25,0,0,1,28.17-3,24,24,0,0,1,6.11,4.71,22.78,22.78,0,0,1-1.74,33Z" transform="translate(-124.67 -53.2)"/><path class="cls-37" d="M609.3,445.47l-11.46,10-22.19-23.66,11.46-10a25,25,0,0,1,28.17-3,22.59,22.59,0,0,1,2,10.53A23,23,0,0,1,609.3,445.47Z" transform="translate(-124.67 -53.2)"/><path class="cls-38" d="M608.78,466.36c-3.46,3.09-13.67-2.07-22.82-11.54s-13.77-19.65-10.31-22.75c2.73-2.45,9.69.27,17,6.19a66.69,66.69,0,0,1,5.8,5.34,63.16,63.16,0,0,1,5.84,6.95C609.4,457.62,611.4,464,608.78,466.36Z" transform="translate(-124.67 -53.2)"/><path class="cls-15" d="M604.3,450.55a8.92,8.92,0,0,1-10.8,1.76,8.22,8.22,0,0,1-3.28-11.41,8.33,8.33,0,0,1,2.45-2.65,66.69,66.69,0,0,1,5.8,5.34A63.16,63.16,0,0,1,604.3,450.55Z" transform="translate(-124.67 -53.2)"/><polyline class="cls-39" points="543.61 492.99 573.32 397.1 513.15 357.02 500.53 367.76"/><ellipse class="cls-35" cx="512.36" cy="357.59" rx="7.4" ry="7.13"/><ellipse class="cls-38" cx="512.36" cy="357.59" rx="3.7" ry="3.56"/><path class="cls-37" d="M698.18,558.34H621.65a15.2,15.2,0,0,1,15.2-15.2H683a15.2,15.2,0,0,1,15.2,15.2Z" transform="translate(-124.67 -53.2)"/><rect class="cls-35" x="512.76" y="486.13" width="13.81" height="4.18"/><ellipse class="cls-35" cx="572.72" cy="398.07" rx="10.36" ry="9.98"/><ellipse class="cls-38" cx="572.72" cy="398.07" rx="5.18" ry="4.99"/><path class="cls-40" d="M546.79,458.61h69.52a6,6,0,0,1,6,6v12.19a6,6,0,0,1-6,6H546.79a0,0,0,0,1,0,0V458.61A0,0,0,0,1,546.79,458.61Z"/><path class="cls-40" d="M521.23,458.61h69.52a6,6,0,0,1,6,6v12.19a6,6,0,0,1-6,6H521.23a0,0,0,0,1,0,0V458.61A0,0,0,0,1,521.23,458.61Z"/><path class="cls-41" d="M521.23,461h66.15a5.18,5.18,0,0,1,5.18,5.18v8.17a5.18,5.18,0,0,1-5.18,5.18H521.23a0,0,0,0,1,0,0V461A0,0,0,0,1,521.23,461Z"/><rect class="cls-15" x="602.07" y="468.19" width="15.98" height="1.76"/><rect class="cls-15" x="602.07" y="471.96" width="15.98" height="1.76"/><path class="cls-40" d="M558.18,415.63H627.7a6,6,0,0,1,6,6v12.19a6,6,0,0,1-6,6H558.18a0,0,0,0,1,0,0V415.63A0,0,0,0,1,558.18,415.63Z"/><path class="cls-40" d="M532.61,415.63h69.52a6,6,0,0,1,6,6v12.19a6,6,0,0,1-6,6H532.61a0,0,0,0,1,0,0V415.63A0,0,0,0,1,532.61,415.63Z"/><path class="cls-41" d="M532.61,418.05h67a5.18,5.18,0,0,1,5.18,5.18v9.06a5.18,5.18,0,0,1-5.18,5.18h-67a0,0,0,0,1,0,0V418.05A0,0,0,0,1,532.61,418.05Z"/><rect class="cls-41" x="611.55" y="423.3" width="19.54" height="8.63"/><rect class="cls-35" x="613.46" y="425.22" width="15.98" height="1.76"/><rect class="cls-35" x="613.46" y="428.09" width="15.98" height="1.76"/><path class="cls-35" d="M551.9,481.61h69.52a6,6,0,0,1,6,6v12.19a6,6,0,0,1-6,6H551.9a0,0,0,0,1,0,0V481.61A0,0,0,0,1,551.9,481.61Z"/><path class="cls-35" d="M526.34,481.61h69.52a6,6,0,0,1,6,6v12.19a6,6,0,0,1-6,6H526.34a0,0,0,0,1,0,0V481.61A0,0,0,0,1,526.34,481.61Z"/><path class="cls-41" d="M526.34,484.92h66.15a5.18,5.18,0,0,1,5.18,5.18v7.28a5.18,5.18,0,0,1-5.18,5.18H526.34a0,0,0,0,1,0,0V484.92A0,0,0,0,1,526.34,484.92Z"/><rect class="cls-41" x="605.28" y="489.28" width="19.54" height="8.63"/><rect class="cls-35" x="607.18" y="491.2" width="15.98" height="1.76"/><rect class="cls-35" x="607.18" y="494.07" width="15.98" height="1.76"/><path class="cls-42" d="M662.3,492.94v18.89H743a9.44,9.44,0,1,0,0-18.89Z" transform="translate(-124.67 -53.2)"/><path class="cls-43" d="M652.92,492.94v18.89h67.88a9.44,9.44,0,1,0,0-18.89Z" transform="translate(-124.67 -53.2)"/><path class="cls-41" d="M652.92,496.18v12.11h65.34a6.05,6.05,0,1,0,0-12.11Z" transform="translate(-124.67 -53.2)"/><line class="cls-44" x1="532.61" y1="420.9" x2="602.49" y2="420.9"/><line class="cls-44" x1="532.61" y1="424.95" x2="602.49" y2="424.95"/><line class="cls-44" x1="532.61" y1="429" x2="602.49" y2="429"/><line class="cls-44" x1="532.61" y1="433.04" x2="602.49" y2="433.04"/><line class="cls-44" x1="521.17" y1="464.57" x2="591.47" y2="464.57"/><line class="cls-44" x1="521.17" y1="468.62" x2="591.47" y2="468.62"/><line class="cls-44" x1="521.17" y1="472.67" x2="591.47" y2="472.67"/><line class="cls-44" x1="521.17" y1="476.71" x2="591.47" y2="476.71"/><line class="cls-44" x1="526.5" y1="487.79" x2="596.8" y2="487.79"/><line class="cls-44" x1="526.5" y1="491.84" x2="596.8" y2="491.84"/><line class="cls-44" x1="526.5" y1="495" x2="596.8" y2="495"/><line class="cls-44" x1="526.5" y1="499.04" x2="596.8" y2="499.04"/><rect class="cls-45" x="130.91" y="525.25" width="20.45" height="221.54"/><path class="cls-46" d="M549.52,526.92l20.27,5.81a2.81,2.81,0,0,0,3.46-1.92h0a2.81,2.81,0,0,0-1.92-3.46l-20.27-5.81a2.81,2.81,0,0,0-3.46,1.92h0A2.81,2.81,0,0,0,549.52,526.92Z" transform="translate(-124.67 -53.2)"/><path class="cls-46" d="M555.11,533.64l16.28,4.67a2.81,2.81,0,0,0,3.46-1.92h0a2.81,2.81,0,0,0-1.92-3.46l-16.28-4.67a2.81,2.81,0,0,0-3.46,1.92h0A2.81,2.81,0,0,0,555.11,533.64Z" transform="translate(-124.67 -53.2)"/><path class="cls-46" d="M550.49,537.42l19.27,5.52a2.81,2.81,0,0,0,3.46-1.92h0a2.81,2.81,0,0,0-1.92-3.46L552,532a2.81,2.81,0,0,0-3.46,1.92h0A2.81,2.81,0,0,0,550.49,537.42Z" transform="translate(-124.67 -53.2)"/><path class="cls-47" d="M623.9,557.25H540.23a7.47,7.47,0,0,1-6.77-10.65l29.18-62.26a15.45,15.45,0,0,1,14-8.9h77a5.45,5.45,0,0,1,4.93,7.76Z" transform="translate(-124.67 -53.2)"/><rect class="cls-47" x="351.82" y="495.5" width="68.43" height="8.76" rx="4.38" ry="4.38"/><rect class="cls-35" x="385.9" y="498.4" width="8.52" height="2.56"/><rect class="cls-35" x="377.17" y="498.4" width="6.18" height="2.56"/><path class="cls-48" d="M622.64,557.25H538.77A4.11,4.11,0,0,1,535,551.4l31.43-67a15.45,15.45,0,0,1,14-8.9h77a5.45,5.45,0,0,1,4.93,7.76L629.9,552.64A8,8,0,0,1,622.64,557.25Z" transform="translate(-124.67 -53.2)"/><ellipse class="cls-15" cx="599.62" cy="519.12" rx="9.16" ry="5.11" transform="translate(-238.06 813.28) rotate(-66.86)"/><rect class="cls-48" x="230.61" y="525.25" width="20.45" height="221.54"/><rect class="cls-48" x="492.2" y="525.24" width="20.45" height="221.55"/><rect class="cls-48" x="591.9" y="525.24" width="20.45" height="221.55"/><polygon class="cls-38" points="492.2 525.24 512.65 525.24 512.65 598.32 492.2 608.47 492.2 525.24"/><polygon class="cls-38" points="612.34 525.24 612.34 548.85 591.89 558.99 591.89 525.24 612.34 525.24"/><polygon class="cls-38" points="251.23 524.81 251.23 548.71 230.52 558.99 230.52 524.81 251.23 524.81"/><path class="cls-38" d="M236.38,557.44h459a0,0,0,0,1,0,0v17.49a10.14,10.14,0,0,1-10.14,10.14H246.52a10.14,10.14,0,0,1-10.14-10.14V557.44a0,0,0,0,1,0,0Z" transform="translate(807.13 1089.29) rotate(180)"/><rect class="cls-49" x="178.88" y="483.77" width="100.25" height="21.33"/><rect class="cls-41" x="233.03" y="483.53" width="46.36" height="21.81"/><line class="cls-50" x1="178.97" y1="487.7" x2="279.31" y2="487.7"/><line class="cls-50" x1="178.97" y1="491.99" x2="279.31" y2="491.99"/><line class="cls-50" x1="178.97" y1="496.28" x2="279.31" y2="496.28"/><line class="cls-50" x1="178.97" y1="500.57" x2="279.31" y2="500.57"/><rect class="cls-51" x="12.83" y="568.36" width="138.6" height="177.57"/><rect class="cls-51" x="64.34" y="568.36" width="147.35" height="177.57"/><rect class="cls-43" x="73.77" y="581.36" width="129.21" height="46.99"/><rect class="cls-43" x="73.77" y="636.5" width="129.21" height="46.99"/><rect class="cls-43" x="73.77" y="691.63" width="129.21" height="46.99"/><rect class="cls-15" x="126.17" y="602.34" width="37.34" height="5.03" rx="2.46" ry="2.46"/><rect class="cls-15" x="127.43" y="657.08" width="37.34" height="5.03" rx="2.46" ry="2.46"/><rect class="cls-15" x="127.43" y="711.83" width="37.34" height="5.03" rx="2.46" ry="2.46"/><path class="cls-37" d="M280.95,520.57v31.37h-26.2V520.57a2.51,2.51,0,0,1,2.51-2.51h21.19A2.51,2.51,0,0,1,280.95,520.57Z" transform="translate(-124.67 -53.2)"/><path class="cls-36" d="M255.07,546.57c-.34-.2-8.39-4.91-9.1-13.16a7.56,7.56,0,0,1,2-6.18c2.88-3,7.66-2.8,8.2-2.77l-.21,3.83c-1,0-3.83.15-5.24,1.62a3.84,3.84,0,0,0-.89,3.17c.55,6.28,7.13,10.13,7.19,10.17Z" transform="translate(-124.67 -53.2)"/><path class="cls-42" d="M274.48,538H267a4.71,4.71,0,0,1-4.71-4.71h0a4.71,4.71,0,0,1,4.71-4.71h7.51a4.71,4.71,0,0,1,4.71,4.71h0A4.71,4.71,0,0,1,274.48,538Z" transform="translate(-124.67 -53.2)"/><path class="cls-36" d="M268.7,551.94h-14V520.57a2.51,2.51,0,0,1,2.51-2.51h.84c0,1.64.49,14.15,4,23.16C265.15,549.07,267.87,551.39,268.7,551.94Z" transform="translate(-124.67 -53.2)"/><line class="cls-44" x1="526.5" y1="487.79" x2="596.8" y2="487.79"/><line class="cls-44" x1="526.5" y1="491.84" x2="596.8" y2="491.84"/><line class="cls-44" x1="526.5" y1="495" x2="596.8" y2="495"/><line class="cls-44" x1="526.5" y1="499.04" x2="596.8" y2="499.04"/><polygon class="cls-15" points="223.15 484.13 239.98 447.92 256.6 483.71 223.15 484.13"/><rect class="cls-15" x="209.73" y="448.13" width="30.25" height="34.94"/><polygon class="cls-38" points="194.18 484.13 209.52 448.35 226.14 484.13 194.18 484.13"/><rect class="cls-9" x="222.09" y="452.61" width="15.12" height="1.49"/><rect class="cls-9" x="223.37" y="455.59" width="15.12" height="1.49"/><path class="cls-9" d="M356.42,532.92l-8.11-19.12,17.65.07,8.71,18.53ZM350.22,515l7,16.56,15.42-.38-7.49-16.06Z" transform="translate(-124.67 -53.2)"/><line class="cls-52" x1="226.51" y1="464.59" x2="242.67" y2="464.59"/><line class="cls-52" x1="227.91" y1="468.08" x2="244.07" y2="468.08"/><line class="cls-52" x1="229.06" y1="471.56" x2="245.22" y2="471.56"/><line class="cls-52" x1="230.96" y1="475.05" x2="247.12" y2="475.05"/><line class="cls-52" x1="237.85" y1="461.63" x2="245.36" y2="478.33"/><line class="cls-52" x1="233.38" y1="461.71" x2="240.89" y2="478.41"/><line class="cls-52" x1="228.98" y1="461.39" x2="236.41" y2="478.73"/><rect class="cls-53" x="723.46" y="475.06" width="4.26" height="58.79" transform="translate(-25.65 -171.94) rotate(10.04)"/><rect class="cls-53" x="726.23" y="473.92" width="6.6" height="17.68" transform="translate(-29.37 -172.96) rotate(10.04)"/><polygon class="cls-51" points="590.9 487.96 586.65 487.61 591.56 429.02 594.13 425.27 595.81 429.37 590.9 487.96"/><polygon class="cls-45" points="585 490.95 580.81 491.77 569.58 434.06 571.03 429.75 573.76 433.24 585 490.95"/><polygon class="cls-36" points="594.4 504.38 576.19 504.38 570.22 456.17 600.37 456.17 594.4 504.38"/><polygon class="cls-37" points="601.26 504.38 583.05 504.38 580.37 456.17 607.23 456.17 601.26 504.38"/><path class="cls-53" d="M276.36,598.25V621.7h-72.8a11.73,11.73,0,1,1,0-23.45Z" transform="translate(-124.67 -53.2)"/><path class="cls-54" d="M248.93,613.91v7.78H203.56a11.75,11.75,0,0,1-11.05-7.78Z" transform="translate(-124.67 -53.2)"/><path class="cls-35" d="M303.88,598.24V621.7h-72.8a11.73,11.73,0,1,1,0-23.46Z" transform="translate(-124.67 -53.2)"/><path class="cls-41" d="M303.88,602.26v15H234.24a7.52,7.52,0,1,1,0-15Z" transform="translate(-124.67 -53.2)"/><path class="cls-37" d="M277.95,551.63v23.46h-72.8a11.73,11.73,0,1,1,0-23.46Z" transform="translate(-124.67 -53.2)"/><path class="cls-55" d="M250.29,559.46v-7.78H204.91a11.75,11.75,0,0,0-11.05,7.78Z" transform="translate(-124.67 -53.2)"/><path class="cls-43" d="M303.88,551.63v23.46h-72.8a11.73,11.73,0,1,1,0-23.46Z" transform="translate(-124.67 -53.2)"/><path class="cls-41" d="M303.88,555.65v15H234.24a7.52,7.52,0,1,1,0-15Z" transform="translate(-124.67 -53.2)"/><path class="cls-56" d="M282.18,575.22v23.46h-72.8A11.74,11.74,0,0,1,199,581.44a12.11,12.11,0,0,1,2.06-2.79,11.72,11.72,0,0,1,8.29-3.43Z" transform="translate(-124.67 -53.2)"/><path class="cls-57" d="M270.91,575.22v6.22H199a12.11,12.11,0,0,1,2.06-2.79,11.72,11.72,0,0,1,8.29-3.43Z" transform="translate(-124.67 -53.2)"/><path class="cls-57" d="M270.91,598.69v-6.22H199a12.11,12.11,0,0,0,2.06,2.79,11.72,11.72,0,0,0,8.29,3.43Z" transform="translate(-124.67 -53.2)"/><path class="cls-58" d="M318.17,575.22v23.46h-72.8a11.73,11.73,0,1,1,0-23.46Z" transform="translate(-124.67 -53.2)"/><path class="cls-41" d="M318.17,579.24v15H248.53a7.52,7.52,0,1,1,0-15Z" transform="translate(-124.67 -53.2)"/><path class="cls-59" d="M206.33,559.77C196.59,573,177,575.23,177,575.23s-3.75-19.3,6-32.57,29.28-15.46,29.28-15.46S216.07,546.51,206.33,559.77Z" transform="translate(-124.67 -53.2)"/><path class="cls-60" d="M165.43,551.84c8.93,8.8,8.44,23.77,8.44,23.77s-15,.7-23.89-8.09-8.44-23.77-8.44-23.77S156.5,543,165.43,551.84Z" transform="translate(-124.67 -53.2)"/><path class="cls-61" d="M187.56,545.18c1.81,16.35-11.07,31.21-11.07,31.21s-15.83-11.67-17.64-28,11.07-31.21,11.07-31.21S185.75,528.83,187.56,545.18Z" transform="translate(-124.67 -53.2)"/><polygon class="cls-51" points="61.68 568.37 27.79 568.37 16.68 518.92 72.79 518.92 61.68 568.37"/><polygon class="cls-62" points="74.46 568.37 40.57 568.37 35.57 518.92 85.57 518.92 74.46 568.37"/><path class="cls-63" d="M337.78,557.44H771.26a0,0,0,0,1,0,0v17.49a10.14,10.14,0,0,1-10.14,10.14H347.92a10.14,10.14,0,0,1-10.14-10.14V557.44a0,0,0,0,1,0,0Z" transform="translate(984.37 1089.29) rotate(180)"/></svg>