<?xml version="1.0" encoding="utf-8"?>
<!-- Generator: Adobe Illustrator 22.0.0, SVG Export Plug-In . SVG Version: 6.00 Build 0)  -->
<svg version="1.1" xmlns="http://www.w3.org/2000/svg" xmlns:xlink="http://www.w3.org/1999/xlink" x="0px" y="0px"
	 viewBox="0 0 800 800" style="enable-background:new 0 0 800 800;" xml:space="preserve">
<style type="text/css">
	.st0{fill:#BCD6C7;}
	.st1{fill:#FFCA4D;}
	.st2{fill:#D1D3D4;}
	.st3{fill:#F1F2F2;}
	.st4{fill:#E0E0E0;}
	.st5{fill:#F5F5F5;}
	.st6{fill:#FDDCBE;}
	.st7{fill:#F2F2F2;}
	.st8{fill:#574939;}
	.st9{fill:#EB7D86;}
</style>
<g id="Layer_2">
</g>
<g id="Layer_1">
	<g>
		<g>
			<g>
				<g>
					<g>
						<path class="st0" d="M593.8,305.8c-0.1,0-0.2,0-0.4,0l-47.1-4c-2.4-0.2-4.2-2.3-4-4.8c0.2-2.4,2.4-4.2,4.8-4l47.1,4
							c2.4,0.2,4.2,2.3,4,4.8C598,304.1,596.1,305.8,593.8,305.8z"/>
					</g>
				</g>
				<g>
					<g>
						<path class="st0" d="M536.4,226.3c-1.8,0-3.5-1.1-4.1-2.9c-0.8-2.3,0.3-4.8,2.6-5.7l44.4-16.3c2.3-0.8,4.8,0.3,5.7,2.6
							c0.8,2.3-0.3,4.8-2.6,5.7L538,226C537.4,226.2,536.9,226.3,536.4,226.3z"/>
					</g>
				</g>
				<g>
					<g>
						<path class="st0" d="M495.2,162.1c-1.1,0-2.2-0.4-3.1-1.3c-1.7-1.7-1.7-4.5,0-6.2l33.3-33.6c1.7-1.7,4.5-1.7,6.2,0
							c1.7,1.7,1.7,4.5,0,6.2l-33.3,33.6C497.5,161.7,496.4,162.1,495.2,162.1z"/>
					</g>
				</g>
				<g>
					<g>
						<path class="st0" d="M430.8,121.4c-0.5,0-1-0.1-1.5-0.3c-2.3-0.8-3.5-3.4-2.7-5.6l16-44.5c0.8-2.3,3.3-3.5,5.6-2.7
							c2.3,0.8,3.5,3.4,2.7,5.6l-16,44.5C434.3,120.2,432.6,121.4,430.8,121.4z"/>
					</g>
				</g>
				<g>
					<g>
						<path class="st0" d="M355.1,111.7c-2.3,0-4.2-1.7-4.4-4l-4.3-47.1c-0.2-2.4,1.6-4.6,4-4.8c2.4-0.2,4.6,1.6,4.8,4l4.3,47.1
							c0.2,2.4-1.6,4.6-4,4.8C355.4,111.7,355.3,111.7,355.1,111.7z"/>
					</g>
				</g>
				<g>
					<g>
						<path class="st0" d="M282.5,134.8c-1.5,0-3-0.8-3.8-2.2l-23.8-40.9c-1.2-2.1-0.5-4.8,1.6-6c2.1-1.2,4.8-0.5,6,1.6l23.8,40.9
							c1.2,2.1,0.5,4.8-1.6,6C284,134.6,283.2,134.8,282.5,134.8z"/>
					</g>
				</g>
				<g>
					<g>
						<path class="st0" d="M226.4,186.6c-0.9,0-1.7-0.3-2.5-0.8l-38.8-27c-2-1.4-2.5-4.1-1.1-6.1c1.4-2,4.1-2.5,6.1-1.1l38.8,27
							c2,1.4,2.5,4.1,1.1,6.1C229.2,185.9,227.8,186.6,226.4,186.6z"/>
					</g>
				</g>
				<g>
					<g>
						<path class="st0" d="M197.5,257.1c-0.2,0-0.5,0-0.8-0.1l-46.6-8.1c-2.4-0.4-4-2.7-3.6-5.1c0.4-2.4,2.7-4,5.1-3.6l46.6,8.1
							c2.4,0.4,4,2.7,3.6,5.1C201.4,255.6,199.6,257.1,197.5,257.1z"/>
					</g>
				</g>
				<g>
					<g>
						<path class="st0" d="M155.4,345.7c-1.9,0-3.7-1.3-4.3-3.3c-0.6-2.3,0.7-4.8,3.1-5.4l45.7-12.4c2.3-0.6,4.8,0.7,5.4,3.1
							c0.6,2.3-0.7,4.8-3.1,5.4l-45.7,12.4C156.2,345.6,155.8,345.7,155.4,345.7z"/>
					</g>
				</g>
			</g>
		</g>
		<g>
			<g>
				<g>
					<path class="st1" d="M500.3,270.8c-6.6-71.4-69.8-123.9-141.2-117.3c-71.4,6.6-123.9,69.8-117.3,141.2c4,43.5,29,80,64.1,100.4
						l2.1,22.4l55.2-5.1c6.5,0.4,13.1,0.3,19.8-0.3c6.7-0.6,13.2-1.7,19.5-3.3l55.2-5.1l-2.1-22.3
						C486.4,354.8,504.4,314.3,500.3,270.8z"/>
					<g>
						<g>
							<g>
								<g>
									<path class="st2" d="M408.2,274.7c-0.1-0.2-0.1-0.4-0.2-0.6c-0.1-0.2-0.2-0.4-0.3-0.7c-0.1-0.2-0.3-0.4-0.4-0.6
										c-0.1-0.2-0.2-0.3-0.3-0.5c-0.6-0.7-1.2-1.3-2-1.7c-0.2-0.1-0.3-0.1-0.5-0.2c-0.2-0.1-0.5-0.2-0.7-0.3
										c-0.2-0.1-0.4-0.1-0.6-0.1c-0.2,0-0.4-0.1-0.6-0.1c-0.4,0-0.9,0-1.3,0c0,0,0,0,0,0l0,0c-0.4,0-0.9,0.1-1.3,0.3
										c-0.2,0.1-0.4,0.1-0.5,0.2c-0.2,0.1-0.5,0.2-0.7,0.3c-0.2,0.1-0.4,0.3-0.6,0.4c-0.2,0.1-0.3,0.2-0.5,0.3
										c-0.3,0.3-0.7,0.6-0.9,0.9l-9.8,11.8l-11.8-9.8c-2.9-2.4-7.1-2-9.4,0.9l-9.8,11.8l-11.8-9.8c-0.3-0.3-0.7-0.5-1.1-0.7
										c-0.2-0.1-0.3-0.1-0.5-0.2c-0.2-0.1-0.5-0.2-0.7-0.3c-0.2-0.1-0.4-0.1-0.7-0.1c-0.2,0-0.4-0.1-0.6-0.1
										c-0.9-0.1-1.8,0-2.6,0.2c-0.2,0.1-0.4,0.2-0.6,0.2c-0.2,0.1-0.4,0.2-0.6,0.3c-0.2,0.1-0.4,0.3-0.6,0.4
										c-0.2,0.1-0.3,0.2-0.5,0.3c-0.7,0.6-1.3,1.2-1.7,2c-0.1,0.2-0.2,0.4-0.2,0.5c-0.1,0.2-0.2,0.4-0.3,0.7
										c-0.1,0.2-0.1,0.5-0.1,0.7c0,0.2-0.1,0.4-0.1,0.6c0,0.4-0.1,0.9,0,1.3v0l12.3,133.2c0.3,3.7,3.6,6.4,7.3,6.1
										c3.7-0.3,6.4-3.6,6.1-7.3l-10.8-117l4.5,3.7c1.4,1.1,3.1,1.7,4.9,1.5c1.8-0.2,3.4-1,4.5-2.4l9.8-11.8l11.8,9.8
										c1.4,1.1,3.1,1.7,4.9,1.5c1.8-0.2,3.4-1,4.5-2.4l3.7-4.5l10.8,117c0.3,3.7,3.6,6.4,7.3,6.1c3.7-0.3,6.4-3.6,6.1-7.3
										L408.5,276v0C408.4,275.6,408.3,275.1,408.2,274.7z"/>
								</g>
							</g>
						</g>
					</g>
					<g>
						<g>
							<g>
								<g>
									<g>
										<path class="st3" d="M460.4,433l-149.7,13.8c-8.1,0.7-15.3-5.2-16.1-13.3c-0.7-8.1,5.2-15.3,13.3-16.1l149.7-13.8
											c8.1-0.7,15.3,5.2,16.1,13.3C474.5,425,468.5,432.2,460.4,433z"/>
									</g>
								</g>
							</g>
						</g>
					</g>
					<g>
						<g>
							<g>
								<g>
									<g>
										<path class="st3" d="M463.1,462.4l-149.7,13.8c-8.1,0.7-15.3-5.2-16.1-13.3c-0.7-8.1,5.2-15.3,13.3-16.1L460.4,433
											c8.1-0.7,15.3,5.2,16.1,13.3C477.2,454.4,471.2,461.6,463.1,462.4z"/>
									</g>
								</g>
							</g>
						</g>
					</g>
					<g>
						<g>
							<g>
								<g>
									<g>
										<path class="st4" d="M310.7,446.8L460.4,433c8.1-0.7,14.1-7.9,13.3-16.1l-179.1,16.5C295.4,441.6,302.6,447.6,310.7,446.8
											z"/>
									</g>
								</g>
							</g>
						</g>
					</g>
					<g>
						<g>
							<g>
								<g>
									<g>
										<path class="st4" d="M313.5,476.2l149.7-13.8c8.1-0.7,14.1-7.9,13.3-16.1l-179.1,16.5C298.1,471,305.3,476.9,313.5,476.2z
											"/>
									</g>
								</g>
							</g>
						</g>
					</g>
				</g>
			</g>
			<g>
				<path class="st5" d="M471.2,568l-14.6-7c0,0,3.5-5.7,9.3-16.7l14,7.1C477.1,556.7,474.3,562.2,471.2,568z"/>
				<path class="st6" d="M465.8,544.3c9.7-18.5,32.5-72.1,49.6-119.9c0,0,1.1-3.9,4.2-2.5c1.8,0.8,0.5,4.4,0.5,4.4s2.1-3.2,3.9-2.4
					c1.8,0.8,1,4.5,1,4.5s1.8-2.7,3.3-1.9c1.5,0.7,0.1,4.4,0.1,4.4s1.6-3.3,3.3-2.5c2.2,1,0.1,5.5,0.1,5.5
					c-3.1,6.5-20.1,56-52,117.6L465.8,544.3z"/>
				<path class="st7" d="M465.8,544.3c3.2-6.2,8-16.3,13.4-28.8c0.8,6.8,2.1,19.7,2.5,32.2c-0.6,1.3-1.3,2.5-1.9,3.8
					c-2.7,5.3-5.6,10.8-8.7,16.6l-14.6-7C456.6,561,460.1,555.3,465.8,544.3z"/>
				<ellipse class="st7" cx="404.5" cy="738.1" rx="100.1" ry="11.2"/>
				<path class="st6" d="M471.6,551.7c0,0,2.4-43.8-8.5-89.4l-149.7,13.8c5.1,26.6,6.8,37.3,10.9,80.4
					C423.4,575.5,471.6,551.7,471.6,551.7z"/>
				<g>
					<path class="st8" d="M359.1,498.7l10-27.6l-55.6,5.1c2.1,37,10.9,80.4,10.9,80.4c17.2-10.2,31.8-47,31.8-47s-17.3,5-14-9.3
						C345.5,486,359.1,498.7,359.1,498.7z"/>
				</g>
				<path class="st8" d="M336.5,644.6l-0.9,42.5l-5.9,50.8c0,0,52.1,14.1,39-6.5c-12.1-19-31.1-3.2-31.1-3.2l10.3-42.9l5.7-28.8
					c0,0,52.1,7.1,98.7-1l-2.4,24.2l-8.8,52.6c0,0,48.2,16.2,34.9-6.2c-7.4-12.4-25.6-4.6-25.6-4.6l11.6-41.8l7.9-36.3L336.5,644.6z
					"/>
				<path class="st5" d="M471.6,551.7l-1.5,91.6c0,0-55.8,11.9-133.6,1.2l-12.1-88C324.4,556.6,414.3,571.2,471.6,551.7z"/>
				<path class="st5" d="M326.5,570.6l12.7-10.1c0,0-4.7-4.7-12.8-14.2l-12.1,10.1C318.2,560.9,322.2,565.7,326.5,570.6z"/>
				<path class="st6" d="M326.4,546.3c-13.6-15.9-47.7-63.1-75-105.9c0,0-2-3.6-4.7-1.5c-1.5,1.2,0.5,4.5,0.5,4.5s-2.7-2.7-4.3-1.5
					c-1.6,1.2,0,4.6,0,4.6s-2.3-2.2-3.7-1.1c-1.3,1.1,0.9,4.3,0.9,4.3s-2.2-2.9-3.7-1.7c-1.9,1.5,1.1,5.4,1.1,5.4
					c4.5,5.7,32.1,50.1,76.8,103.1L326.4,546.3z"/>
				<polygon class="st7" points="438.9,566.1 441.7,571.1 437.9,577.2 441,631.6 426,642.8 414.1,629.7 430.4,577.8 425.9,571.5 
					428.2,567.3 				"/>
				<polygon class="st8" points="438.9,566.1 441.7,571.1 437.9,577.2 444.2,630.8 429.2,642 417.3,628.9 430.4,577.8 425.9,571.5 
					428.2,567.3 				"/>
				<path class="st9" d="M443.9,520.9c0,0-27.3,0.3-43.7,6.4c0,0-0.5,22.2,25,19.3C450.6,543.6,443.9,520.9,443.9,520.9z"/>
				<path class="st8" d="M391.1,499.3c0.6,5.4-1.1,10-3.9,10.4c-2.8,0.3-5.5-3.8-6.2-9.2c-0.6-5.4,1.1-10,3.9-10.4
					C387.7,489.8,390.5,493.9,391.1,499.3z"/>
				<path class="st8" d="M453.9,491.8c0.6,5.4-1.1,10-3.9,10.4c-2.8,0.3-5.5-3.8-6.2-9.2c-0.6-5.4,1.1-10,3.9-10.4
					C450.5,482.3,453.3,486.4,453.9,491.8z"/>
			</g>
			<path class="st7" d="M463.1,462.4l-94,8.7l-55.6,5.1c0.1,1.1,0.1,2.1,0.2,3.2l151.2-9.1C464.1,466,464.1,466.7,463.1,462.4z"/>
		</g>
	</g>
</g>
</svg>
